<?xml version="1.0" standalone="no"?>
<!DOCTYPE svg PUBLIC "-//W3C//DTD SVG 20010904//EN"
 "http://www.w3.org/TR/2001/REC-SVG-20010904/DTD/svg10.dtd">
<svg version="1.0" xmlns="http://www.w3.org/2000/svg"
 width="173.000000pt" height="173.000000pt" viewBox="0 0 173.000000 173.000000"
 preserveAspectRatio="xMidYMid meet">
<metadata>
Created by potrace 1.11, written by Peter Selinger 2001-2013
</metadata>
<g transform="translate(0.000000,173.000000) scale(0.100000,-0.100000)"
fill="#000000" stroke="none">
<path d="M348 1373 c-32 -37 -212 -422 -265 -568 -69 -192 -98 -356 -70 -399
42 -64 99 -10 334 316 202 280 278 376 355 455 34 35 58 66 55 70 -20 19 -117
-88 -351 -386 -179 -228 -316 -393 -332 -398 -16 -5 10 99 64 252 45 130 81
217 164 395 24 52 50 110 58 128 10 25 17 31 32 26 18 -5 19 -1 16 58 -3 55
-6 63 -24 66 -11 2 -27 -5 -36 -15z"/>
<path d="M922 1273 c-56 -56 -213 -291 -301 -448 -134 -242 -170 -440 -83
-462 65 -16 168 77 472 425 40 45 75 81 77 78 3 -3 -2 -26 -11 -53 -19 -61
-54 -199 -59 -238 -5 -36 11 -75 30 -75 52 0 158 110 269 279 67 101 124 190
130 199 1 2 28 -4 59 -14 65 -18 201 -22 218 -5 6 6 9 11 6 11 -110 6 -150 11
-177 19 -38 11 -36 11 -62 11 -13 0 -24 10 -30 25 -5 14 -11 25 -14 25 -2 0
-16 -26 -31 -57 -83 -171 -302 -453 -352 -453 -23 0 5 118 67 283 44 117 49
152 23 161 -14 6 -49 -16 -73 -45 -35 -42 -228 -248 -310 -330 -103 -103 -200
-180 -200 -159 0 15 38 127 62 180 91 207 304 547 340 544 11 -1 23 16 36 52
17 47 18 56 5 74 -21 30 -39 25 -91 -27z"/>
</g>
</svg>
